# xmcd
#
# Track frame offsets:
#	182
#	16677
#	29705
#	50667
#	66515
#	82795
#	97225
#	112755
#	126162
#	143852
#	158340
#	176222
#	190100
#	204522
#	223342
#
# Disc length: 3169 seconds
#
# Revision: 2
# Processed by: cddbd v1.5.1PL2 Copyright (c) Steve Scherf et al.
# Submitted via: dBpowerAMP V4.0
#
DISCID=d50c5f0f
DTITLE=Various Artist - Fresh Picks - Country Music Month '97
DYEAR=1997
DGENRE=Country
TTITLE0=Michael Peterson - From Here To Eternity
TTITLE1=Bill Engvall with John Michael Montgomery - Warning Signs (Non-album track)
TTITLE2=Anita Cochran - Daddy Can You See Me
TTITLE3=Daryle Singletary - Amen Kind Of Love
TTITLE4=Little Texas - All In The Line Of Love
TTITLE5=Lynns - Nights Like These
TTITLE6=Paul Brandt - What's Come Over You
TTITLE7=Dwight Yoakam - Claudette
TTITLE8=Victoria Shaw - Don't Move
TTITLE9=Crawford West - I'd Be Crazy Not To
TTITLE10=Brady Seals - Another You, Another Me
TTITLE11=Regina Regina - Asking For The Moon
TTITLE12=Clay Walker - Watch This
TTITLE13=Travis Tritt featuring Lari White - Helping Me Get Over You
TTITLE14=Rebekah Del Rio - Nobody's Angel
EXTD=
EXTT0=
EXTT1=
EXTT2=
EXTT3=
EXTT4=
EXTT5=
EXTT6=
EXTT7=
EXTT8=
EXTT9=
EXTT10=
EXTT11=
EXTT12=
EXTT13=
EXTT14=
PLAYORDER=
